<svg width="190" height="140" viewBox="0 0 190 140" fill="none" xmlns="http://www.w3.org/2000/svg">
<path d="M176.373 139.453C174.031 139.355 171.896 138.409 170.931 136.944C170.886 136.875 170.843 136.806 170.803 136.735C170.45 136.111 170.34 135.393 170.726 134.777C171.111 134.162 172.075 133.695 173.041 133.792C174.007 133.889 174.763 134.661 174.363 135.271C174.274 134.037 174.2 132.74 175.195 131.666C175.742 131.104 176.456 130.735 177.231 130.613C179.235 130.26 180.565 131.394 180.832 132.538C181.028 133.383 180.757 134.242 180.486 135.078C181.32 134.092 183.302 133.653 184.821 134.119C186.34 134.585 187.182 135.889 186.663 136.973C186.052 138.249 184.015 138.908 182.123 139.257C180.56 139.544 178.217 139.529 176.373 139.453Z" fill="#F2F2F2"/>
<path d="M13.8244 139.453C16.1671 139.355 18.3015 138.409 19.2668 136.944C19.3121 136.875 19.3547 136.806 19.3945 136.735C19.747 136.111 19.8571 135.393 19.4716 134.777C19.0862 134.162 18.1226 133.695 17.1566 133.792C16.1905 133.889 15.4346 134.661 15.8349 135.271C15.9234 134.037 15.9975 132.74 15.0029 131.666C14.4555 131.104 13.7413 130.735 12.9669 130.613C10.9628 130.26 9.63229 131.394 9.36579 132.538C9.16918 133.383 9.44076 134.242 9.71124 135.078C8.87769 134.092 6.89545 133.653 5.37654 134.119C3.85762 134.585 3.01589 135.889 3.53473 136.973C4.14579 138.249 6.18288 138.908 8.07511 139.257C9.63806 139.544 11.9808 139.529 13.8244 139.453Z" fill="#F2F2F2"/>
<path d="M190 139.238H0V140H190V139.238Z" fill="#238B46"/>
<path d="M86.2582 36.7031C84.5607 36.7031 82.9014 36.1994 81.4901 35.2559C80.0787 34.3123 78.9787 32.9712 78.3291 31.4021C77.6795 29.833 77.5095 28.1064 77.8407 26.4406C78.1718 24.7749 78.9892 23.2448 80.1895 22.0439C81.3898 20.8429 82.919 20.0251 84.5838 19.6938C86.2487 19.3624 87.9743 19.5325 89.5425 20.1824C91.1107 20.8323 92.4511 21.933 93.3942 23.3451C94.3372 24.7573 94.8406 26.4175 94.8406 28.1159C94.838 30.3926 93.9329 32.5752 92.324 34.1851C90.715 35.7949 88.5336 36.7005 86.2582 36.7031ZM86.2582 20.9599C84.8437 20.9599 83.4609 21.3796 82.2847 22.1659C81.1086 22.9523 80.1919 24.0699 79.6506 25.3774C79.1093 26.685 78.9677 28.1239 79.2436 29.512C79.5196 30.9001 80.2007 32.1752 81.201 33.1759C82.2012 34.1767 83.4756 34.8583 84.8629 35.1344C86.2503 35.4105 87.6883 35.2688 88.9951 34.7272C90.302 34.1855 91.419 33.2683 92.2048 32.0915C92.9907 30.9148 93.4102 29.5312 93.4102 28.1159C93.408 26.2187 92.6538 24.3998 91.313 23.0582C89.9722 21.7167 88.1544 20.9621 86.2582 20.9599Z" fill="#61BD51"/>
<path d="M85.9766 17.382C85.7869 17.382 85.605 17.3066 85.4708 17.1724C85.3367 17.0382 85.2614 16.8562 85.2614 16.6664V8.43703C85.2614 8.24724 85.3367 8.06523 85.4708 7.93103C85.605 7.79683 85.7869 7.72144 85.9766 7.72144C86.1662 7.72144 86.3481 7.79683 86.4823 7.93103C86.6164 8.06523 86.6918 8.24724 86.6918 8.43703V16.6664C86.6917 16.8562 86.6164 17.0382 86.4823 17.1724C86.3481 17.3066 86.1662 17.382 85.9766 17.382Z" fill="#61BD51"/>
<path d="M74.815 28.5499H66.5902C66.4005 28.5499 66.2186 28.4745 66.0845 28.3403C65.9503 28.2061 65.875 28.0241 65.875 27.8343C65.875 27.6445 65.9503 27.4625 66.0845 27.3283C66.2186 27.1941 66.4005 27.1187 66.5902 27.1187H74.815C75.0047 27.1187 75.1866 27.1941 75.3207 27.3283C75.4548 27.4625 75.5302 27.6445 75.5302 27.8343C75.5302 28.0241 75.4548 28.2061 75.3207 28.3403C75.1866 28.4745 75.0047 28.5499 74.815 28.5499Z" fill="#61BD51"/>
<path d="M104.853 28.5499H96.6286C96.4389 28.5499 96.257 28.4745 96.1229 28.3403C95.9887 28.2061 95.9134 28.0241 95.9134 27.8343C95.9134 27.6445 95.9887 27.4625 96.1229 27.3283C96.257 27.1941 96.4389 27.1187 96.6286 27.1187H104.853C105.043 27.1187 105.225 27.1941 105.359 27.3283C105.493 27.4625 105.569 27.6445 105.569 27.8343C105.569 28.0241 105.493 28.2061 105.359 28.3403C105.225 28.4745 105.043 28.5499 104.853 28.5499Z" fill="#61BD51"/>
<path d="M96.4027 20.7255C96.2603 20.7255 96.1211 20.683 96.003 20.6034C95.885 20.5238 95.7933 20.4108 95.7398 20.2787C95.6863 20.1467 95.6734 20.0017 95.7028 19.8623C95.7322 19.7229 95.8025 19.5955 95.9047 19.4963L99.349 16.1528C99.4164 16.0871 99.496 16.0355 99.5834 16.0007C99.6707 15.9659 99.7641 15.9487 99.8581 15.95C99.9521 15.9514 100.045 15.9713 100.131 16.0085C100.218 16.0458 100.296 16.0998 100.361 16.1673C100.427 16.2348 100.478 16.3146 100.513 16.4021C100.547 16.4895 100.564 16.583 100.563 16.677C100.561 16.7711 100.541 16.8639 100.504 16.9503C100.467 17.0366 100.413 17.1147 100.345 17.18L96.9006 20.5236C96.7673 20.6533 96.5886 20.7258 96.4027 20.7255Z" fill="#61BD51"/>
<path d="M75.3986 20.7255C75.2126 20.7258 75.0339 20.6533 74.9006 20.5236L71.4563 17.18C71.3887 17.1147 71.3346 17.0366 71.2972 16.9503C71.2598 16.8639 71.2398 16.7711 71.2383 16.677C71.2367 16.583 71.2538 16.4895 71.2884 16.4021C71.323 16.3146 71.3745 16.2348 71.44 16.1673C71.5055 16.0998 71.5836 16.0458 71.6699 16.0085C71.7563 15.9713 71.8491 15.9514 71.9431 15.95C72.0371 15.9487 72.1305 15.9659 72.2178 16.0007C72.3052 16.0355 72.3849 16.0871 72.4522 16.1528L75.8966 19.4963C75.9988 19.5955 76.0691 19.7229 76.0984 19.8623C76.1278 20.0017 76.1149 20.1467 76.0614 20.2787C76.0079 20.4108 75.9163 20.5238 75.7982 20.6034C75.6801 20.683 75.541 20.7255 75.3986 20.7255Z" fill="#61BD51"/>
<path d="M72.6694 40.2811C72.5289 40.281 72.3914 40.2395 72.2743 40.1618C72.1572 40.0841 72.0655 39.9736 72.0108 39.8441C71.956 39.7146 71.9406 39.5718 71.9665 39.4335C71.9924 39.2953 72.0584 39.1678 72.1562 39.0669L75.6006 35.5179C75.7328 35.3819 75.9136 35.304 76.1031 35.3013C76.2927 35.2986 76.4756 35.3713 76.6117 35.5035C76.7477 35.6356 76.8257 35.8164 76.8286 36.0061C76.8314 36.1958 76.7589 36.3789 76.6269 36.5151L73.1826 40.0641C73.116 40.1328 73.0362 40.1874 72.948 40.2247C72.8599 40.262 72.7651 40.2812 72.6694 40.2811Z" fill="#61BD51"/>
<path d="M100.562 40.9967C100.467 40.9968 100.372 40.9778 100.284 40.9407C100.196 40.9036 100.117 40.8492 100.05 40.7807L95.8908 36.5162C95.8251 36.4489 95.7732 36.3694 95.7383 36.2821C95.7033 36.1949 95.6858 36.1015 95.6869 36.0075C95.688 35.9135 95.7076 35.8206 95.7446 35.7341C95.7816 35.6477 95.8352 35.5694 95.9025 35.5037C95.9698 35.438 96.0493 35.3862 96.1366 35.3514C96.2239 35.3165 96.3172 35.2991 96.4112 35.3004C96.5052 35.3016 96.598 35.3213 96.6843 35.3585C96.7707 35.3956 96.8489 35.4494 96.9144 35.5168L101.074 39.7814C101.172 39.8821 101.239 40.0097 101.265 40.148C101.291 40.2863 101.276 40.4293 101.221 40.559C101.167 40.6888 101.075 40.7995 100.958 40.8774C100.84 40.9552 100.703 40.9967 100.562 40.9967Z" fill="#61BD51"/>
<path d="M85.9766 48.1526C85.7869 48.1526 85.605 48.0772 85.4708 47.943C85.3367 47.8088 85.2614 47.6268 85.2614 47.437V39.2077C85.2614 39.1137 85.2798 39.0206 85.3158 38.9338C85.3517 38.847 85.4044 38.7681 85.4708 38.7017C85.5372 38.6352 85.6161 38.5825 85.7029 38.5465C85.7896 38.5106 85.8826 38.4921 85.9766 38.4921C86.0705 38.4921 86.1635 38.5106 86.2502 38.5465C86.337 38.5825 86.4159 38.6352 86.4823 38.7017C86.5487 38.7681 86.6014 38.847 86.6373 38.9338C86.6733 39.0206 86.6918 39.1137 86.6918 39.2077V47.437C86.6917 47.6268 86.6164 47.8088 86.4823 47.943C86.3481 48.0772 86.1662 48.1526 85.9766 48.1526Z" fill="#61BD51"/>
<path d="M138.871 139.884H59.6783C42.5935 139.884 28.694 125.743 28.694 108.361C28.694 90.9788 42.5935 76.8376 59.6783 76.8376H65.3123C68.4119 70.5143 73.1882 65.1647 79.1197 61.3726C85.138 57.5225 92.1315 55.4756 99.2748 55.4734C119.089 55.4734 135.604 71.0632 137.141 91.0804H138.871C152.109 91.0804 162.88 102.027 162.88 115.482C162.88 128.937 152.109 139.884 138.871 139.884ZM59.6783 78.1652C43.3252 78.1652 30.0209 91.7108 30.0209 108.361C30.0209 125.01 43.3252 138.556 59.6783 138.556H138.871C151.378 138.556 161.553 128.205 161.553 115.482C161.553 102.759 151.378 92.4081 138.871 92.4081H135.898L135.86 91.7846C134.664 72.1678 118.594 56.8011 99.2748 56.8011C85.3631 56.8011 72.4299 65.0391 66.326 77.7882L66.1455 78.1652H59.6783Z" fill="#0E97BB"/>
</svg>
